<svg width="50" height="50" viewBox="0 0 50 50" fill="none" xmlns="http://www.w3.org/2000/svg">
<circle cx="25" cy="25" r="25" fill="#FFEEDF"/>
<path d="M25 10C19.1845 10 14.4531 14.7313 14.4531 20.5469C14.4531 22.5118 14.9974 24.4293 16.0275 26.0929L24.3996 39.5845C24.56 39.843 24.8426 40 25.1464 40C25.1488 40 25.1511 40 25.1534 40C25.4599 39.9976 25.743 39.8357 25.9005 39.5727L34.0592 25.9504C35.0325 24.322 35.5469 22.4535 35.5469 20.5469C35.5469 14.7313 30.8155 10 25 10ZM32.5507 25.0479L25.1331 37.4328L17.5215 25.1668C16.6641 23.7821 16.1992 22.1846 16.1992 20.5469C16.1992 15.7006 20.1537 11.7461 25 11.7461C29.8463 11.7461 33.7949 15.7006 33.7949 20.5469C33.7949 22.136 33.3607 23.6927 32.5507 25.0479Z" fill="#FD7900"/>
<path d="M25 15.2734C22.0922 15.2734 19.7266 17.6391 19.7266 20.5469C19.7266 23.4361 22.0537 25.8203 25 25.8203C27.9826 25.8203 30.2734 23.4043 30.2734 20.5469C30.2734 17.6391 27.9078 15.2734 25 15.2734ZM25 24.0742C23.0513 24.0742 21.4727 22.4903 21.4727 20.5469C21.4727 18.6084 23.0615 17.0195 25 17.0195C26.9385 17.0195 28.5215 18.6084 28.5215 20.5469C28.5215 22.4619 26.9795 24.0742 25 24.0742Z" fill="#FD7900"/>
</svg>
