<svg width="50" height="50" viewBox="0 0 50 50" fill="none" xmlns="http://www.w3.org/2000/svg">
<rect width="50" height="50" rx="25" fill="#00BB25"/>
<g clip-path="url(#clip0_51_210)">
<path d="M32.7927 27.8837L32.7815 27.9775C30.0327 26.6075 29.7452 26.425 29.3902 26.9575C29.144 27.3262 28.4265 28.1625 28.2102 28.41C27.9915 28.6537 27.774 28.6725 27.4027 28.5037C27.0277 28.3162 25.824 27.9225 24.399 26.6475C23.289 25.6537 22.544 24.435 22.324 24.06C21.9577 23.4275 22.724 23.3375 23.4215 22.0175C23.5465 21.755 23.4827 21.5487 23.3902 21.3625C23.2965 21.175 22.5502 19.3375 22.2377 18.605C21.9377 17.875 21.629 17.9675 21.3977 17.9675C20.6777 17.905 20.1515 17.915 19.6877 18.3975C17.6702 20.615 18.179 22.9025 19.9052 25.335C23.2977 29.775 25.1052 30.5925 28.4102 31.7275C29.3027 32.0112 30.1165 31.9712 30.7602 31.8787C31.4777 31.765 32.969 30.9775 33.2802 30.0962C33.599 29.215 33.599 28.4837 33.5052 28.315C33.4127 28.1462 33.1677 28.0525 32.7927 27.8837Z" fill="white"/>
<path d="M36.5591 14.3114C26.9478 5.02011 11.0416 11.7589 11.0353 24.8664C11.0353 27.4864 11.7216 30.0414 13.0291 32.2976L10.9091 40.0001L18.8278 37.9351C28.7091 43.2726 40.9041 36.1851 40.9091 24.8739C40.9091 20.9039 39.3591 17.1676 36.5403 14.3601L36.5591 14.3114ZM38.4116 24.8326C38.4041 34.3739 27.9303 40.3326 19.6466 35.4626L19.1966 35.1951L14.5091 36.4139L15.7653 31.8576L15.4666 31.3889C10.3116 23.1826 16.2341 12.4576 25.9991 12.4576C29.3166 12.4576 32.4303 13.7514 34.7753 16.0951C37.1191 18.4189 38.4116 21.5326 38.4116 24.8326Z" fill="white"/>
</g>
<defs>
<clipPath id="clip0_51_210">
<rect width="30" height="30" fill="white" transform="translate(10.9091 10)"/>
</clipPath>
</defs>
</svg>
