<svg width="30" height="30" viewBox="0 0 30 30" fill="none" xmlns="http://www.w3.org/2000/svg">
<path d="M15 0C6.7159 0 0 6.7159 0 15C0 23.2841 6.7159 30 15 30C23.2841 30 30 23.2841 30 15C30 6.7159 23.2841 0 15 0ZM15 27.5C8.0966 27.5 2.50002 21.9034 2.50002 15C2.50002 8.0966 8.0966 2.50002 15 2.50002C21.9034 2.50002 27.5 8.0966 27.5 15C27.5 21.9034 21.9034 27.5 15 27.5Z" fill="#FD7900"/>
<path d="M15 27.5C8.0966 27.5 2.50002 21.9034 2.50002 15C2.50002 8.0966 8.0966 2.50002 15 2.50002C21.9034 2.50002 27.5 8.0966 27.5 15C27.5 21.9034 21.9034 27.5 15 27.5Z" fill="#FD7900"/>
<path d="M13.3839 7.86611C12.8957 7.37796 12.1043 7.37796 11.6161 7.86611C11.128 8.35425 11.128 9.14574 11.6161 9.63388L16.9822 15L11.6161 20.3661C11.128 20.8543 11.128 21.6458 11.6161 22.1339C12.1043 22.6221 12.8957 22.6221 13.3839 22.1339L19.6339 15.8839C20.122 15.3958 20.122 14.6043 19.6339 14.1161L13.3839 7.86611Z" fill="white"/>
</svg>
