<svg width="30" height="30" viewBox="0 0 30 30" fill="none" xmlns="http://www.w3.org/2000/svg">
<path d="M15 30C23.2841 30 30 23.2841 30 15C30 6.7159 23.2841 0 15 0C6.7159 0 0 6.7159 0 15C0 23.2841 6.7159 30 15 30ZM15 2.50002C21.9034 2.50002 27.5 8.0966 27.5 15C27.5 21.9034 21.9034 27.5 15 27.5C8.0966 27.5 2.50002 21.9034 2.50002 15C2.50002 8.0966 8.0966 2.50002 15 2.50002Z" fill="#FD7900"/>
<path d="M15 2.50002C21.9034 2.50002 27.5 8.0966 27.5 15C27.5 21.9034 21.9034 27.5 15 27.5C8.0966 27.5 2.50002 21.9034 2.50002 15C2.50002 8.0966 8.0966 2.50002 15 2.50002Z" fill="#FD7900"/>
<path d="M16.6161 22.1339C17.1043 22.622 17.8957 22.622 18.3839 22.1339C18.872 21.6457 18.872 20.8543 18.3839 20.3661L13.0178 15L18.3839 9.63385C18.872 9.14571 18.872 8.35423 18.3839 7.86608C17.8957 7.37794 17.1043 7.37794 16.6161 7.86608L10.3661 14.1161C9.87795 14.6042 9.87795 15.3957 10.3661 15.8839L16.6161 22.1339Z" fill="white"/>
</svg>
